HIERARCHY
ROOT Hips
{
	OFFSET -0.001795 -0.223333 0.028219
	CHANNELS 6 Xposition Yposition Zposition Zrotation Yrotation Xrotation 
	JOINT LeftUpLeg
	{
		OFFSET 0.069520 -0.091406 -0.006815
		CHANNELS 3 Zrotation Yrotation Xrotation
		JOINT LeftLeg
		{
			OFFSET 0.034277 -0.375199 -0.004496
			CHANNELS 3 Zrotation Yrotation Xrotation
			JOINT LeftFoot
			{
				OFFSET -0.013596 -0.397961 -0.043693
				CHANNELS 3 Zrotation Yrotation Xrotation
				JOINT LeftToe
				{
					OFFSET 0.026358 -0.055791 0.119288
					CHANNELS 3 Zrotation Yrotation Xrotation
					End Site
					{
						OFFSET 0.000000 0.000000 0.000000
					}
				}
			}
		}
	}
	JOINT RightUpLeg
	{
		OFFSET -0.067670 -0.090522 -0.004320
		CHANNELS 3 Zrotation Yrotation Xrotation
		JOINT RightLeg
		{
			OFFSET -0.038290 -0.382569 -0.008850
			CHANNELS 3 Zrotation Yrotation Xrotation
			JOINT RightFoot
			{
				OFFSET 0.015774 -0.398415 -0.042312
				CHANNELS 3 Zrotation Yrotation Xrotation
				JOINT RightToe
				{
					OFFSET -0.025372 -0.048144 0.123348
					CHANNELS 3 Zrotation Yrotation Xrotation
					End Site
					{
						OFFSET 0.000000 0.000000 0.000000
					}
				}
			}
		}
	}
	JOINT Spine
	{
		OFFSET -0.002533 0.108963 -0.026696
		CHANNELS 3 Zrotation Yrotation Xrotation
		JOINT Spine1
		{
			OFFSET 0.005487 0.135180 0.001092
			CHANNELS 3 Zrotation Yrotation Xrotation
			JOINT Spine2
			{
				OFFSET 0.001457 0.052922 0.025425
				CHANNELS 3 Zrotation Yrotation Xrotation
				JOINT Neck
				{
					OFFSET -0.002778 0.213870 -0.042857
					CHANNELS 3 Zrotation Yrotation Xrotation
					JOINT Head
					{
						OFFSET 0.005152 0.064970 0.051349
						CHANNELS 3 Zrotation Yrotation Xrotation
						End Site
						{
							OFFSET 0.000000 0.000000 0.000000
						}
					}
				}
				JOINT LeftShoulder
				{
					OFFSET 0.078845 0.121749 -0.034090
					CHANNELS 3 Zrotation Yrotation Xrotation
					JOINT LeftArm
					{
						OFFSET 0.090977 0.030469 -0.008868
						CHANNELS 3 Zrotation Yrotation Xrotation
						JOINT LeftForeArm
						{
							OFFSET 0.259612 -0.012772 -0.027456
							CHANNELS 3 Zrotation Yrotation Xrotation
							JOINT LeftHand
							{
								OFFSET 0.249234 0.008986 -0.001171
								CHANNELS 3 Zrotation Yrotation Xrotation
								End Site
								{
									OFFSET 0.000000 0.000000 0.000000
								}
							}
						}
					}
				}
				JOINT RightShoulder
				{
					OFFSET -0.081759 0.118833 -0.038615
					CHANNELS 3 Zrotation Yrotation Xrotation
					JOINT RightArm
					{
						OFFSET -0.096012 0.032551 -0.009143
						CHANNELS 3 Zrotation Yrotation Xrotation
						JOINT RightForeArm
						{
							OFFSET -0.253742 -0.013329 -0.021401
							CHANNELS 3 Zrotation Yrotation Xrotation
							JOINT RightHand
							{
								OFFSET -0.255298 0.007772 -0.005559
								CHANNELS 3 Zrotation Yrotation Xrotation
								End Site
								{
									OFFSET 0.000000 0.000000 0.000000
								}
							}
						}
					}
				}
			}
		}
	}
}
MOTION
Frames: 13
Frame Time: 0.050000
-0.057969 0.949171 1.234765 3.336901 14.196768 16.758844 1.032903 -0.506413 -5.723823 -0.239626 -0.182887 4.566396 4.985848 13.345017 10.184303 0.000000 0.000000 0.000000 2.373108 2.103688 -24.243345 -0.676084 0.313753 9.983879 -2.121498 -6.896311 11.288079 0.000000 0.000000 0.000000 10.343976 -3.350974 16.300377 7.978033 -5.068631 7.351014 -10.865413 2.198670 2.266752 15.481666 -7.864387 -13.334281 0.000000 0.000000 0.000000 -9.637962 -41.933567 16.879585 -19.479397 -44.411632 3.234473 41.747213 -42.193540 -15.553507 0.000000 0.000000 0.000000 9.062676 22.430949 11.649623 27.159079 18.480473 0.523587 -30.711421 45.461139 -9.200091 0.000000 0.000000 0.000000 
-0.057509 0.948771 1.234615 3.412784 13.973603 16.550003 1.168632 -0.498631 -5.588807 -0.337241 -0.199353 5.149316 5.024664 13.226495 9.597136 0.000000 0.000000 0.000000 2.380800 2.122202 -24.342743 -0.683879 0.325400 10.711911 -2.339111 -7.296922 10.748376 0.000000 0.000000 0.000000 9.842064 -3.234738 16.418966 7.915509 -5.022777 7.326621 -10.863264 2.100255 2.061439 15.423920 -8.034653 -12.668670 0.000000 0.000000 0.000000 -9.826679 -41.689747 16.814020 -18.433155 -43.101606 2.786562 39.923327 -41.517276 -14.500783 0.000000 0.000000 0.000000 9.854490 22.031131 11.623092 27.833033 17.965748 0.461317 -28.450478 48.950191 -9.091148 0.000000 0.000000 0.000000 
-0.056938 0.948231 1.234270 3.377373 14.386875 16.332412 1.410164 -0.494981 -5.471633 -0.249128 -0.245997 5.802945 4.876581 12.747829 8.672064 0.000000 0.000000 0.000000 2.380015 2.107365 -24.439813 -0.517005 0.283671 11.517927 -2.624430 -7.754532 10.170238 0.000000 0.000000 0.000000 9.720061 -3.208569 16.410882 8.185557 -5.158610 7.127459 -10.806434 2.019609 2.098979 15.210976 -8.094473 -12.006380 0.000000 0.000000 0.000000 -10.043079 -41.171540 16.563764 -16.749970 -41.800009 2.157328 38.628375 -40.998733 -13.777352 0.000000 0.000000 0.000000 10.469100 21.728195 11.647443 28.936269 17.817091 0.489293 -26.815301 50.601277 -8.694328 0.000000 0.000000 0.000000 
-0.056310 0.947773 1.233801 3.308517 14.706483 15.972280 1.781557 -0.490527 -5.287625 -0.371170 -0.268937 6.483014 4.892756 12.545036 7.895104 0.000000 0.000000 0.000000 2.357471 2.095324 -24.562805 -0.495127 0.272248 12.073750 -2.710026 -7.948726 10.797124 0.000000 0.000000 0.000000 9.628843 -3.210753 16.560431 8.501607 -5.468052 7.676988 -10.501502 2.412106 1.587531 15.202207 -8.168939 -11.627882 0.000000 0.000000 0.000000 -9.803490 -40.644104 16.111968 -15.679977 -40.457183 1.754156 38.358419 -40.989783 -13.758526 0.000000 0.000000 0.000000 11.343103 21.949572 12.077557 29.403896 17.977949 0.541291 -24.702569 50.313821 -7.691924 0.000000 0.000000 0.000000 
-0.055602 0.947221 1.233203 3.354186 15.168794 15.725314 1.848439 -0.475482 -5.081279 -0.114726 -0.321819 6.765738 4.554470 11.834395 7.328969 0.000000 0.000000 0.000000 2.217404 2.044138 -24.471430 -0.221686 0.195764 12.340855 -3.142968 -8.749340 10.792687 0.000000 0.000000 0.000000 9.570304 -3.241825 16.774857 8.851574 -5.754295 7.966659 -10.086327 3.160161 1.104657 15.262404 -8.285449 -11.207279 0.000000 0.000000 0.000000 -9.010660 -40.077131 15.448699 -15.390966 -39.489826 1.591930 38.500762 -41.170354 -14.060793 0.000000 0.000000 0.000000 12.043198 21.901532 12.427049 30.220230 18.542028 0.701681 -23.177412 48.303863 -6.634186 0.000000 0.000000 0.000000 
-0.054865 0.946659 1.232523 3.227675 15.662405 15.405265 1.951153 -0.472014 -5.004658 -0.068439 -0.343202 6.967906 4.528881 11.599250 6.715634 0.000000 0.000000 0.000000 2.470954 2.045449 -24.024492 -0.350432 0.215574 12.031930 -3.540469 -9.472046 10.821486 0.000000 0.000000 0.000000 9.625416 -3.288942 16.921173 8.949301 -5.977911 8.611015 -9.327806 3.900563 0.473043 15.009834 -8.177539 -10.834884 0.000000 0.000000 0.000000 -9.267390 -39.352308 14.959055 -15.026423 -38.699624 1.479111 38.923969 -41.763064 -14.599650 0.000000 0.000000 0.000000 12.801854 22.248486 12.976127 31.092694 19.083708 0.894050 -21.846152 45.650848 -5.702121 0.000000 0.000000 0.000000 
-0.054049 0.946341 1.231775 3.307887 16.110591 15.121546 1.848672 -0.447132 -4.748053 0.070026 -0.364332 6.961372 4.379782 11.393434 6.811344 0.000000 0.000000 0.000000 2.490216 2.015807 -23.744657 -0.539907 0.249670 11.981659 -3.858782 -10.049993 11.031433 0.000000 0.000000 0.000000 9.839669 -3.400135 17.200485 9.082092 -6.097350 8.687944 -8.737777 4.423788 0.188106 14.824925 -7.934361 -11.084039 0.000000 0.000000 0.000000 -9.250926 -38.626739 14.467514 -14.534335 -38.254480 1.328722 38.866164 -41.349874 -14.514069 0.000000 0.000000 0.000000 13.540207 22.400685 13.401965 32.008777 19.920639 1.154318 -21.319360 43.011005 -5.142139 0.000000 0.000000 0.000000 
-0.053314 0.945655 1.230988 3.156494 16.464074 14.662927 1.930287 -0.441541 -4.652902 0.362940 -0.433068 7.375001 4.398082 11.287365 6.413751 0.000000 0.000000 0.000000 2.610898 2.010371 -23.431745 -0.596926 0.254775 12.078552 -3.966481 -10.223923 11.179250 0.000000 0.000000 0.000000 10.177081 -3.532083 17.453271 9.067469 -6.165882 8.951423 -7.850486 4.801151 0.047187 14.719053 -7.546762 -12.034992 0.000000 0.000000 0.000000 -9.447106 -38.136262 14.203424 -14.049802 -37.911190 1.189657 39.323180 -40.416116 -14.388811 0.000000 0.000000 0.000000 13.972627 22.398045 13.569515 32.801100 20.197771 1.285854 -21.345118 42.108715 -5.024307 0.000000 0.000000 0.000000 
-0.052761 0.945458 1.229972 3.010916 16.742293 14.222708 2.021402 -0.435791 -4.548000 0.421887 -0.448833 7.461945 4.685541 11.973086 7.043239 0.000000 0.000000 0.000000 2.780372 2.005128 -22.905999 -0.660242 0.264110 11.865035 -4.095218 -10.440039 11.129513 0.000000 0.000000 0.000000 10.487790 -3.650150 17.680217 9.002692 -6.195423 9.182822 -7.287567 5.106481 -0.110796 14.775378 -7.419446 -12.526375 0.000000 0.000000 0.000000 -9.211480 -37.563424 13.825006 -13.947968 -37.792914 1.151068 38.585067 -39.409521 -13.757960 0.000000 0.000000 0.000000 14.164039 21.978299 13.426390 33.647062 20.342180 1.404308 -21.391915 42.213996 -5.017507 0.000000 0.000000 0.000000 
-0.052438 0.945028 1.228747 2.777416 16.654873 13.848137 2.114116 -0.444999 -4.637000 0.538463 -0.498441 7.949421 4.823039 12.194973 7.051710 0.000000 0.000000 0.000000 3.035322 2.032848 -22.452098 -0.742806 0.287132 11.539266 -4.059428 -10.381903 10.981699 0.000000 0.000000 0.000000 10.642007 -3.674108 17.676874 8.990318 -6.317395 9.769077 -6.507711 5.274481 -0.030111 14.826452 -7.094128 -13.765851 0.000000 0.000000 0.000000 -8.408850 -37.320113 13.614110 -13.605721 -37.640168 1.007475 39.293019 -37.714479 -13.427417 0.000000 0.000000 0.000000 14.151710 22.198615 13.493636 33.929526 20.467269 1.465490 -22.051154 42.350567 -5.277934 0.000000 0.000000 0.000000 
-0.052356 0.945142 1.227437 2.642381 16.127782 13.706994 2.056855 -0.453466 -4.783714 0.599148 -0.519482 8.173650 4.831290 12.160734 6.928350 0.000000 0.000000 0.000000 3.241945 2.078109 -22.222842 -0.966381 0.350763 11.151766 -3.810735 -9.963150 10.962319 0.000000 0.000000 0.000000 10.629753 -3.710491 17.993749 8.890237 -6.246012 9.876359 -6.029858 5.523052 -0.224354 14.783739 -6.934485 -14.224472 0.000000 0.000000 0.000000 -7.632168 -36.993231 13.366098 -14.169384 -37.399121 1.117609 39.704739 -37.034790 -13.372413 0.000000 0.000000 0.000000 14.705728 22.073988 13.567233 33.796463 20.662125 1.477371 -22.011046 42.607277 -5.307824 0.000000 0.000000 0.000000 
-0.052361 0.945607 1.226313 2.723529 15.864779 13.864461 2.118815 -0.494196 -5.280534 0.161691 -0.512035 9.039326 5.065226 12.397267 6.472717 0.000000 0.000000 0.000000 3.284185 2.089884 -22.139800 -1.267262 0.420712 10.594145 -3.676894 -9.737436 11.082225 0.000000 0.000000 0.000000 10.828922 -3.803023 18.216118 8.587835 -5.943503 9.433474 -5.406159 5.124305 0.228387 14.559395 -6.660548 -14.864213 0.000000 0.000000 0.000000 -6.866107 -36.536348 13.188138 -13.895971 -37.397690 0.982260 40.549251 -36.057224 -13.252921 0.000000 0.000000 0.000000 14.248532 22.320888 13.412795 34.272274 20.618106 1.548982 -22.513887 43.131224 -5.592717 0.000000 0.000000 0.000000 
-0.052497 0.945924 1.225426 2.897080 15.434119 13.864011 1.942128 -0.492589 -5.330987 -0.038442 -0.496393 9.325163 5.040088 12.366579 6.523953 0.000000 0.000000 0.000000 3.211666 2.076733 -21.847238 -1.517248 0.475952 10.027456 -3.483920 -9.406930 11.047845 0.000000 0.000000 0.000000 10.834191 -3.778502 18.179067 8.686387 -6.072167 9.862807 -5.446523 5.196343 0.062746 14.234627 -6.285946 -15.469760 0.000000 0.000000 0.000000 -6.322946 -36.182172 12.963668 -13.419104 -37.173080 0.836489 41.754749 -35.082295 -13.335685 0.000000 0.000000 0.000000 14.423876 22.287478 13.415036 34.096365 20.494779 1.499984 -23.158881 43.364472 -5.874114 0.000000 0.000000 0.000000 
